<?xml version="1.0" encoding="utf-8"?>
<!-- Generator: Adobe Illustrator 15.0.0, SVG Export Plug-In . SVG Version: 6.00 Build 0)  -->
<!DOCTYPE svg PUBLIC "-//W3C//DTD SVG 1.1//EN" "http://www.w3.org/Graphics/SVG/1.1/DTD/svg11.dtd">
<svg version="1.1" id="图层_1" xmlns="http://www.w3.org/2000/svg" xmlns:xlink="http://www.w3.org/1999/xlink" x="0px" y="0px"
	 width="20px" height="20px" viewBox="0 0 20 20" enable-background="new 0 0 20 20" xml:space="preserve">
<path fill="#919191" d="M13.443,15.904h-1.512h-1.385v-1.386v-2.285v-0.286c-0.228-0.061-0.46-0.114-0.705-0.158
	c0.564-0.604,0.992-1.548,1.429-2.666c0.256-0.648,0.211-1.201,0.211-1.988c0-0.582,0.111-1.514-0.033-2.027
	c-0.488-1.732-1.716-2.21-3.157-2.21c-1.442,0-2.672,0.48-3.158,2.216C4.991,5.625,5.101,6.555,5.101,7.135
	c0,0.789-0.042,1.342,0.213,1.992c0.442,1.124,0.863,2.067,1.425,2.669c-2.188,0.401-3.666,1.543-4.664,1.988
	C0.01,14.704,0,15.712,0,15.712v1.712l13.443-0.002v-0.007V15.904z"/>
<g>
	<path fill="#919191" d="M16.137,8.777c-1.887,0-3.416,1.53-3.416,3.417c0,1.887,1.529,3.416,3.416,3.416s3.416-1.529,3.416-3.416
		C19.553,10.307,18.023,8.777,16.137,8.777z M18.033,12.346c0,0.209-0.172,0.381-0.381,0.381h-3.055
		c-0.209,0-0.381-0.172-0.381-0.381v-0.316c0-0.211,0.172-0.383,0.381-0.383h3.055c0.209,0,0.381,0.172,0.381,0.383V12.346z"/>
</g>
</svg>
