<?xml version="1.0" encoding="utf-8"?>
<!-- Generator: Adobe Illustrator 15.0.0, SVG Export Plug-In . SVG Version: 6.00 Build 0)  -->
<!DOCTYPE svg PUBLIC "-//W3C//DTD SVG 1.1//EN" "http://www.w3.org/Graphics/SVG/1.1/DTD/svg11.dtd">
<svg version="1.1" id="图层_1" xmlns="http://www.w3.org/2000/svg" xmlns:xlink="http://www.w3.org/1999/xlink" x="0px" y="0px"
	 width="20px" height="20px" viewBox="0 0 20 20" enable-background="new 0 0 20 20" xml:space="preserve">
<g>
	<path fill="#919191" d="M16.577,2.777V1.703c0-1.059-0.668-1.69-1.787-1.69c-1.116,0-1.784,0.632-1.784,1.69v1.074h-1.21V1.703
		c0-1.059-0.667-1.69-1.786-1.69c-1.118,0-1.785,0.632-1.785,1.69v1.074H7.016V1.703c0-1.059-0.667-1.69-1.786-1.69
		c-1.118,0-1.786,0.632-1.786,1.69v1.074h-2.05v17.21h17.211V2.777H16.577z M5.202,12.928v2.644H2.829v-2.644H5.202z M2.829,12.45
		V9.567h2.374v2.883H2.829z M5.68,12.928h11.49v2.644H5.68V12.928z M5.68,12.45V9.567h11.49v2.883H5.68z M13.961,1.703
		c0-0.522,0.24-0.734,0.829-0.734c0.592,0,0.831,0.212,0.831,0.734v2.874c0,0.522-0.239,0.733-0.831,0.733
		c-0.589,0-0.829-0.211-0.829-0.733V1.703z M9.181,1.703c0-0.522,0.239-0.734,0.829-0.734c0.591,0,0.83,0.212,0.83,0.734v2.874
		c0,0.522-0.238,0.733-0.83,0.733c-0.59,0-0.829-0.211-0.829-0.733V1.703z M17.17,6.602V9.09H5.68V6.602H17.17z M4.401,1.703
		c0-0.522,0.239-0.734,0.829-0.734c0.59,0,0.829,0.212,0.829,0.734v2.874c0,0.522-0.239,0.733-0.829,0.733
		c-0.59,0-0.829-0.211-0.829-0.733V1.703z M5.202,6.602V9.09H2.829V6.602H5.202z M2.829,16.048h2.374v2.506H2.829V16.048z
		 M5.68,18.554v-2.506h11.49v2.506H5.68z"/>
</g>
</svg>
