<?xml version="1.0" encoding="utf-8"?>
<!-- Generator: Adobe Illustrator 16.0.0, SVG Export Plug-In . SVG Version: 6.00 Build 0)  -->
<!DOCTYPE svg PUBLIC "-//W3C//DTD SVG 1.1//EN" "http://www.w3.org/Graphics/SVG/1.1/DTD/svg11.dtd">
<svg version="1.1" id="图层_1" xmlns="http://www.w3.org/2000/svg" xmlns:xlink="http://www.w3.org/1999/xlink" x="0px" y="0px"
	 width="20px" height="20px" viewBox="0 0 20 20" enable-background="new 0 0 20 20" xml:space="preserve">
<g>
	<path fill="#474747" d="M0.817,20c0.152,0,0.31-0.039,0.473-0.109l4.6-2.045c0.397-0.175,0.927-0.541,1.233-0.847l12.559-12.56
		c0.243-0.241,0.376-0.564,0.376-0.907s-0.133-0.666-0.376-0.908l-2.298-2.299c-0.243-0.242-0.564-0.374-0.907-0.374
		s-0.666,0.132-0.908,0.374L2.689,13.207c-0.31,0.308-0.67,0.85-0.837,1.254l-1.755,4.266c-0.19,0.463-0.056,0.774,0.041,0.923
		C0.288,19.871,0.535,20,0.817,20z M6.218,16.094c-0.002,0-0.002,0-0.002,0l-2.298-2.303L14.553,3.156l2.301,2.3L6.218,16.094z
		 M16.478,1.233l2.3,2.299l-1.017,1.017l-2.3-2.298L16.478,1.233z M3.038,14.952c0.02-0.047,0.045-0.098,0.074-0.152l1.992,1.993
		l-3.455,1.534L3.038,14.952z"/>
</g>
</svg>
