<?xml version="1.0" encoding="utf-8"?>
<!-- Generator: Adobe Illustrator 15.0.0, SVG Export Plug-In . SVG Version: 6.00 Build 0)  -->
<!DOCTYPE svg PUBLIC "-//W3C//DTD SVG 1.1//EN" "http://www.w3.org/Graphics/SVG/1.1/DTD/svg11.dtd">
<svg version="1.1" id="图层_1" xmlns="http://www.w3.org/2000/svg" xmlns:xlink="http://www.w3.org/1999/xlink" x="0px" y="0px"
	 width="20px" height="20px" viewBox="0 0 20 20" enable-background="new 0 0 20 20" xml:space="preserve">
<path fill="#929292" d="M19.958,16.266c-2.063,0-3.734-1.672-3.734-3.734V6.987c0-2.738-2.138-5.021-4.979-5.545V0.083h-2.49v1.358
	C5.915,1.966,3.776,4.249,3.776,6.987v5.544c0,2.063-1.671,3.734-3.734,3.734v1.244h8.356c-0.102,0.223-0.158,0.47-0.158,0.729
	C8.24,19.212,9.028,20,10,20c0.972,0,1.761-0.788,1.761-1.761c0-0.26-0.057-0.507-0.158-0.729h8.355V16.266z M13.734,12.531
	l-1.245,1.244L10,11.287l-2.489,2.488l-1.245-1.244l2.49-2.489l-2.49-2.49l1.245-1.245L10,8.797l2.489-2.49l1.245,1.245l-2.489,2.49
	L13.734,12.531z"/>
</svg>
