<?xml version="1.0" encoding="utf-8"?>
<!-- Generator: Adobe Illustrator 15.0.0, SVG Export Plug-In . SVG Version: 6.00 Build 0)  -->
<!DOCTYPE svg PUBLIC "-//W3C//DTD SVG 1.1//EN" "http://www.w3.org/Graphics/SVG/1.1/DTD/svg11.dtd">
<svg version="1.1" id="图层_1" xmlns="http://www.w3.org/2000/svg" xmlns:xlink="http://www.w3.org/1999/xlink" x="0px" y="0px"
	 width="20px" height="20px" viewBox="0 0 20 20" enable-background="new 0 0 20 20" xml:space="preserve">
<g>
	<path fill="#FFFFFF" d="M19.529,15.214L12.154,2.486c-1.147-1.981-3.027-1.982-4.177-0.002L0.576,15.217
		c-1.15,1.98-0.218,3.6,2.071,3.6h14.809C19.743,18.816,20.68,17.195,19.529,15.214z M10.133,16.574
		c-0.709,0-1.273-0.563-1.273-1.272c0-0.71,0.564-1.272,1.273-1.272c0.708,0,1.273,0.563,1.273,1.272
		C11.406,16.011,10.842,16.574,10.133,16.574z M11.035,13.223H9.231L8.623,5.874h3.021L11.035,13.223z"/>
</g>
</svg>
