<?xml version="1.0" encoding="utf-8"?>
<!-- Generator: Adobe Illustrator 15.0.0, SVG Export Plug-In . SVG Version: 6.00 Build 0)  -->
<!DOCTYPE svg PUBLIC "-//W3C//DTD SVG 1.1//EN" "http://www.w3.org/Graphics/SVG/1.1/DTD/svg11.dtd">
<svg version="1.1" id="图层_1" xmlns="http://www.w3.org/2000/svg" xmlns:xlink="http://www.w3.org/1999/xlink" x="0px" y="0px"
	 width="8px" height="8px" viewBox="0 0 8 8" enable-background="new 0 0 8 8" xml:space="preserve">
<path fill-rule="evenodd" clip-rule="evenodd" fill="#FFFFFF" d="M3.979,7.996C1.785,7.996,0,6.211,0,4.016
	c0-2.195,1.785-3.98,3.979-3.98c2.195,0,3.981,1.786,3.981,3.98C7.961,6.211,6.175,7.996,3.979,7.996z M3.979,0.401
	c-1.993,0-3.616,1.622-3.616,3.615s1.623,3.615,3.616,3.615s3.616-1.622,3.616-3.615S5.973,0.401,3.979,0.401z M2.37,6.621
	l1.558-2.62L2.37,1.463l4.466,2.579L2.37,6.621z"/>
</svg>
