<?xml version="1.0" encoding="utf-8"?>
<!-- Generator: Adobe Illustrator 15.0.0, SVG Export Plug-In . SVG Version: 6.00 Build 0)  -->
<!DOCTYPE svg PUBLIC "-//W3C//DTD SVG 1.1//EN" "http://www.w3.org/Graphics/SVG/1.1/DTD/svg11.dtd">
<svg version="1.1" id="图层_1" xmlns="http://www.w3.org/2000/svg" xmlns:xlink="http://www.w3.org/1999/xlink" x="0px" y="0px"
	 width="8px" height="8px" viewBox="0 0 8 8" enable-background="new 0 0 8 8" xml:space="preserve">
<g>
	<g>
		<path fill-rule="evenodd" clip-rule="evenodd" fill="#FFFFFF" d="M0.885,2.875c-0.48,0-0.869,0.372-0.869,0.832
			c0,0.459,0.389,0.832,0.869,0.832c0.479,0,0.869-0.373,0.869-0.832C1.753,3.247,1.364,2.875,0.885,2.875z M4.07,2.875
			c-0.48,0-0.869,0.372-0.869,0.832c0,0.459,0.389,0.832,0.869,0.832s0.869-0.373,0.869-0.832C4.939,3.247,4.55,2.875,4.07,2.875z
			 M7.257,2.875c-0.48,0-0.87,0.372-0.87,0.832c0,0.459,0.39,0.832,0.87,0.832c0.479,0,0.868-0.373,0.868-0.832
			C8.125,3.247,7.736,2.875,7.257,2.875z"/>
	</g>
</g>
</svg>
