<?xml version="1.0" encoding="utf-8"?>
<!-- Generator: Adobe Illustrator 15.0.0, SVG Export Plug-In . SVG Version: 6.00 Build 0)  -->
<!DOCTYPE svg PUBLIC "-//W3C//DTD SVG 1.1//EN" "http://www.w3.org/Graphics/SVG/1.1/DTD/svg11.dtd">
<svg version="1.1" id="图层_1" xmlns="http://www.w3.org/2000/svg" xmlns:xlink="http://www.w3.org/1999/xlink" x="0px" y="0px"
	 width="8px" height="8px" viewBox="0 0 8 8" enable-background="new 0 0 8 8" xml:space="preserve">
<g>
	<g>
		<path fill-rule="evenodd" clip-rule="evenodd" fill="#FFFFFF" d="M5.06,7.458V6.373L2.811,6.379v1.101L2.332,7.724
			c0,0-0.104,0.25,0.167,0.25H5.31c0,0,0.333-0.104,0.229-0.209C5.434,7.661,5.06,7.458,5.06,7.458z M7.059,0.402H0.812
			c-0.414,0-0.749,0.335-0.749,0.75v4.307c0,0.415,0.335,0.75,0.749,0.75h6.247c0.413,0,0.77-0.335,0.77-0.75V1.152
			C7.828,0.738,7.472,0.402,7.059,0.402z M7.329,4.412c0,0.276-0.225,0.5-0.5,0.5H1.042c-0.276,0-0.5-0.223-0.5-0.5v-3.03
			c0-0.276,0.224-0.5,0.5-0.5h5.788c0.275,0,0.5,0.224,0.5,0.5V4.412z M6.565,3.423L6.359,2.415L6.358,2.409L6.357,2.404
			L6.349,2.373c-0.024-0.089-0.044-0.159-0.076-0.22c-0.078-0.145-0.202-0.17-0.27-0.173C5.955,1.978,5.904,1.979,5.854,1.99
			C5.778,1.889,5.636,1.824,5.421,1.902c-0.032,0.012-0.06,0.025-0.084,0.04C5.313,1.956,5.292,1.971,5.273,1.988
			C5.188,1.944,5.077,1.937,4.949,2.012C4.934,2.021,4.884,2.05,4.869,2.061c-0.022,0.016-0.042,0.031-0.06,0.048
			C4.708,1.933,4.615,1.77,4.592,1.732L4.591,1.729L4.59,1.727c-0.108-0.174-0.295-0.25-0.47-0.148
			C4.116,1.582,4.112,1.583,4.108,1.586C4.023,1.64,3.965,1.724,3.942,1.823C3.919,1.92,3.959,2.007,4.011,2.091l0.524,0.896
			c0.034,0.061,0.05,0.118,0.073,0.16L4.465,3.135c-0.086-0.015-0.174,0.001-0.25,0.045C4.12,3.237,4.053,3.332,4.034,3.441
			c-0.037,0.206,0.099,0.403,0.302,0.44l0.657,0.12C5.17,4.102,5.321,4.145,5.423,4.163L5.57,4.417l0.106,0.185L5.86,4.494
			l0.801-0.468L6.843,3.92L6.74,3.735L6.565,3.423z M5.76,4.32L5.553,3.961c0,0-0.206,0.005-0.484-0.165L4.374,3.67
			c-0.088-0.016-0.146-0.101-0.131-0.19C4.251,3.43,4.281,3.39,4.322,3.366c0.032-0.019,0.07-0.026,0.109-0.019l0.4,0.049
			C4.86,3.401,4.882,3.399,4.896,3.391c0.058-0.033-0.001-0.174-0.19-0.505L4.181,1.988c-0.047-0.077-0.036-0.172,0.04-0.219
			c0.001-0.001,0.003-0.002,0.005-0.003c0.075-0.044,0.137,0,0.184,0.075c0,0,0.49,0.851,0.496,0.861
			c0.024,0.042,0.096,0.03,0.122,0.014c0.038-0.022,0.06-0.088,0.011-0.173L4.952,2.405c-0.05-0.075-0.001-0.137,0.073-0.188
			c0.01-0.007,0.02-0.014,0.029-0.019c0.062-0.037,0.12-0.044,0.165,0.02l0.097,0.154c0.035,0.039,0.06,0.043,0.076,0.034
			C5.418,2.39,5.425,2.339,5.425,2.339L5.396,2.261C5.373,2.196,5.394,2.156,5.443,2.127c0.014-0.008,0.03-0.016,0.051-0.023
			C5.578,2.074,5.67,2.064,5.702,2.15L5.724,2.21c0,0,0.036,0.188,0.075,0.165c0.005-0.003,0.01-0.01,0.016-0.021c0,0,0,0,0,0
			l0.014-0.065c0.001-0.039,0.017-0.062,0.04-0.076c0.03-0.018,0.077-0.02,0.128-0.018c0.09,0.004,0.108,0.092,0.156,0.267
			L6.365,3.5l0.196,0.352L5.76,4.32z"/>
	</g>
</g>
</svg>
