<?xml version="1.0" encoding="utf-8"?>
<!-- Generator: Adobe Illustrator 15.0.0, SVG Export Plug-In . SVG Version: 6.00 Build 0)  -->
<!DOCTYPE svg PUBLIC "-//W3C//DTD SVG 1.1//EN" "http://www.w3.org/Graphics/SVG/1.1/DTD/svg11.dtd">
<svg version="1.1" id="图层_1" xmlns="http://www.w3.org/2000/svg" xmlns:xlink="http://www.w3.org/1999/xlink" x="0px" y="0px"
	 width="20px" height="20px" viewBox="0 0 20 20" enable-background="new 0 0 20 20" xml:space="preserve">
<g>
	<g>
		<path fill="#929292" d="M16.191,0.099H3.808c-0.478,0-0.864,0.417-0.864,0.933v18.195c0,0.516,0.386,0.934,0.864,0.934h12.384
			c0.479,0,0.865-0.418,0.865-0.934V1.032C17.057,0.517,16.67,0.099,16.191,0.099z M7.655,16.238c0,0.211-0.199,0.379-0.443,0.379
			H5.627c-0.245,0-0.442-0.168-0.442-0.379v-0.902c0-0.209,0.197-0.379,0.442-0.379h1.585c0.244,0,0.443,0.17,0.443,0.379V16.238z
			 M7.655,13.426c0,0.209-0.199,0.379-0.443,0.379H5.627c-0.245,0-0.442-0.17-0.442-0.379v-0.869c0-0.211,0.197-0.381,0.442-0.381
			h1.585c0.244,0,0.443,0.17,0.443,0.381V13.426z M7.655,10.607c0,0.209-0.199,0.379-0.443,0.379H5.627
			c-0.245,0-0.442-0.17-0.442-0.379V9.704c0-0.209,0.197-0.379,0.442-0.379h1.585c0.244,0,0.443,0.17,0.443,0.379V10.607z
			 M11.148,16.238c0,0.211-0.199,0.379-0.443,0.379H9.246c-0.245,0-0.443-0.168-0.443-0.379v-0.902c0-0.209,0.199-0.379,0.443-0.379
			h1.459c0.244,0,0.443,0.17,0.443,0.379V16.238z M11.148,13.426c0,0.209-0.199,0.379-0.443,0.379H9.246
			c-0.245,0-0.443-0.17-0.443-0.379v-0.869c0-0.211,0.199-0.381,0.443-0.381h1.459c0.244,0,0.443,0.17,0.443,0.381V13.426z
			 M11.148,10.607c0,0.209-0.199,0.379-0.443,0.379H9.246c-0.245,0-0.443-0.17-0.443-0.379V9.704c0-0.209,0.199-0.379,0.443-0.379
			h1.459c0.244,0,0.443,0.17,0.443,0.379V10.607z M14.846,16.215c0,0.211-0.197,0.379-0.443,0.379h-1.738
			c-0.244,0-0.441-0.168-0.441-0.379v-0.902c0-0.209,0.197-0.379,0.441-0.379h1.738c0.246,0,0.443,0.17,0.443,0.379V16.215z
			 M14.846,13.402c0,0.209-0.197,0.379-0.443,0.379h-1.738c-0.244,0-0.441-0.17-0.441-0.379v-0.869c0-0.211,0.197-0.381,0.441-0.381
			h1.738c0.246,0,0.443,0.17,0.443,0.381V13.402z M14.846,10.584c0,0.209-0.197,0.379-0.443,0.379h-1.738
			c-0.244,0-0.441-0.17-0.441-0.379V9.681c0-0.21,0.197-0.38,0.441-0.38h1.738c0.246,0,0.443,0.17,0.443,0.38V10.584z M14.682,7.325
			h-2.14c-0.226,0-0.406-0.53-0.406-0.895c0-0.365,0.181-0.693,0.406-0.693h2.14c0.225,0,0.406,0.329,0.406,0.693
			C15.088,6.794,14.906,7.325,14.682,7.325z M15.596,4.25c0,0.356-0.291,0.644-0.646,0.644H5.052c-0.357,0-0.647-0.288-0.647-0.644
			V2.351c0-0.355,0.29-0.644,0.647-0.644h9.897c0.355,0,0.646,0.289,0.646,0.644V4.25z M14.49,2.057
			c-0.178,0-0.324,0.129-0.324,0.29v1.941c0,0.159,0.146,0.29,0.324,0.29c0.18,0,0.324-0.13,0.324-0.29V2.347
			C14.814,2.187,14.67,2.057,14.49,2.057z"/>
	</g>
</g>
</svg>
