<?xml version="1.0" encoding="utf-8"?>
<!-- Generator: Adobe Illustrator 15.0.0, SVG Export Plug-In . SVG Version: 6.00 Build 0)  -->
<!DOCTYPE svg PUBLIC "-//W3C//DTD SVG 1.1//EN" "http://www.w3.org/Graphics/SVG/1.1/DTD/svg11.dtd">
<svg version="1.1" id="图层_1" xmlns="http://www.w3.org/2000/svg" xmlns:xlink="http://www.w3.org/1999/xlink" x="0px" y="0px"
	 width="13px" height="13px" viewBox="0 0 8 8" enable-background="new 0 0 8 8" xml:space="preserve">
<path fill-rule="evenodd" clip-rule="evenodd" fill="#919191" d="M6.338,5.828C6.309,5.744,6.109,5.172,5.566,5.172H4.42L4.534,4.78
	c0.495-0.126,0.933-0.235,1.249-0.618h1.385c0.379,0,0.496,0.385,0.496,0.385l0.412,1.281H6.338z M6.129,3.813
	c-0.066,0-0.131-0.006-0.195-0.014c0.258-0.383,0.408-0.844,0.408-1.34c0-1.046-0.504-1.223-0.914-1.652
	c-1.114,0.341,2.236-1.01,2.236,1.469C7.664,3.124,6.979,3.813,6.129,3.813z M5.873,2.586c0,1.063-0.861,1.925-1.926,1.925
	c-1.063,0-1.925-0.862-1.925-1.925s0.862-1.925,1.925-1.925C5.012,0.661,5.873,1.523,5.873,2.586z M3.631,1.185
	c-0.589,0.211,0.133,0.962-1.16,1.402c0,0.815,0.661,1.477,1.476,1.477c0.816,0,1.477-0.662,1.477-1.477
	C4.672,1.966,3.409,2.253,3.631,1.185z M2.538,0.77c-0.431,0.434-0.99,0.75-0.99,1.689c0,0.501,0.154,1.134,0.418,1.52
	c-0.009,0-0.019,0.001-0.028,0.001c-0.849,0-1.537-0.856-1.537-1.704C0.402-0.067,3.788,1.023,2.538,0.77z M0.984,4.162h1.122
	C2.48,4.61,2.773,4.749,3.379,4.832l0.078,0.34h-1c-0.543,0-0.728,0.572-0.754,0.656H0.004l0.494-1.281
	C0.498,4.547,0.604,4.162,0.984,4.162z M2.752,5.33h2.496c0.477,0,0.625,0.48,0.625,0.48L6.389,7.34H1.524l0.619-1.529
	C2.143,5.811,2.276,5.33,2.752,5.33z"/>
</svg>
