<?xml version="1.0" encoding="utf-8"?>
<!-- Generator: Adobe Illustrator 15.0.0, SVG Export Plug-In . SVG Version: 6.00 Build 0)  -->
<!DOCTYPE svg PUBLIC "-//W3C//DTD SVG 1.1//EN" "http://www.w3.org/Graphics/SVG/1.1/DTD/svg11.dtd">
<svg version="1.1" id="图层_1" xmlns="http://www.w3.org/2000/svg" xmlns:xlink="http://www.w3.org/1999/xlink" x="0px" y="0px"
	 width="20px" height="20px" viewBox="0 0 20 20" enable-background="new 0 0 20 20" xml:space="preserve">
<path fill="#929292" d="M14.223,10c2.636-1.706,4.42-4.984,4.42-8.75c0-0.423-0.023-0.841-0.067-1.25H1.567
	C1.523,0.409,1.5,0.827,1.5,1.25c0,3.765,1.785,7.044,4.419,8.75C3.285,11.705,1.5,14.985,1.5,18.75c0,0.423,0.023,0.841,0.067,1.25
	h17.008c0.044-0.409,0.067-0.827,0.067-1.25C18.643,14.985,16.858,11.705,14.223,10z M3.336,18.75c0-3.65,1.533-6.746,4.286-7.768
	V9.018l0,0C4.869,7.997,3.336,4.901,3.336,1.25l0,0h13.469l0,0c0,3.65-1.532,6.747-4.286,7.768v1.964
	c2.754,1.021,4.286,4.117,4.286,7.768H3.336z M12.131,13.078c-1.372-0.793-1.447-1.824-1.447-2.449V9.375
	c0-0.625,0.072-1.659,1.449-2.454C12.869,6.484,13.507,5.82,13.988,5H6.152c0.483,0.821,1.122,1.485,1.859,1.922
	c1.37,0.794,1.447,1.824,1.447,2.45l0,1.253c0,0.625-0.073,1.66-1.45,2.454c-1.388,0.824-2.425,2.454-2.738,4.421h9.598
	C14.556,15.533,13.52,13.902,12.131,13.078z"/>
</svg>
