<?xml version="1.0" encoding="utf-8"?>
<!-- Generator: Adobe Illustrator 15.0.0, SVG Export Plug-In . SVG Version: 6.00 Build 0)  -->
<!DOCTYPE svg PUBLIC "-//W3C//DTD SVG 1.1//EN" "http://www.w3.org/Graphics/SVG/1.1/DTD/svg11.dtd">
<svg version="1.1" id="图层_1" xmlns="http://www.w3.org/2000/svg" xmlns:xlink="http://www.w3.org/1999/xlink" x="0px" y="0px"
	 width="13px" height="13px" viewBox="0 0 8 8" enable-background="new 0 0 8 8" xml:space="preserve">
<path fill-rule="evenodd" clip-rule="evenodd" fill="#919191" d="M7.073,6.365L7.17,7.849L5.825,6.918
	c-0.094,0.012-0.19,0.02-0.288,0.02c-1.302,0-2.357-1.056-2.357-2.358c0-1.302,1.055-2.357,2.357-2.357S7.895,3.278,7.895,4.58
	C7.895,5.294,7.575,5.933,7.073,6.365z M5.537,2.804C4.578,2.804,3.8,3.582,3.8,4.542s0.777,1.738,1.737,1.738
	c0.072,0,0.144-0.006,0.213-0.015l0.9,0.596l0.02-1.003c0.37-0.318,0.605-0.789,0.605-1.316C7.275,3.582,6.497,2.804,5.537,2.804z
	 M2.704,4.739c0,0.544,0.151,1.051,0.411,1.487c-0.004,0-0.009,0.001-0.013,0.001c-0.129,0-0.255-0.011-0.38-0.025L0.953,7.426
	L1.08,5.475C0.42,4.905,0,4.065,0,3.125c0-1.713,1.389-3.102,3.102-3.102c1.254,0,2.332,0.746,2.82,1.817
	c-0.1-0.01-0.202-0.016-0.305-0.016C4.008,1.825,2.704,3.129,2.704,4.739z"/>
</svg>
