<?xml version="1.0" encoding="utf-8"?>
<!-- Generator: Adobe Illustrator 15.0.0, SVG Export Plug-In . SVG Version: 6.00 Build 0)  -->
<!DOCTYPE svg PUBLIC "-//W3C//DTD SVG 1.1//EN" "http://www.w3.org/Graphics/SVG/1.1/DTD/svg11.dtd">
<svg version="1.1" id="图层_1" xmlns="http://www.w3.org/2000/svg" xmlns:xlink="http://www.w3.org/1999/xlink" x="0px" y="0px"
	 width="8px" height="8px" viewBox="0 0 8 8" enable-background="new 0 0 8 8" xml:space="preserve">
<path fill-rule="evenodd" clip-rule="evenodd" fill="#FFFFFF" d="M1.021,5.275V2.439c0-0.809,0.681-1.486,1.494-1.486h3.833
	C6.146,0.386,5.607,0,4.968,0H1.534C0.721,0,0.063,0.655,0.063,1.463v2.438C0.063,4.538,0.451,5.074,1.021,5.275z M1.488,2.926
	v1.951c0,0.809,0.705,1.44,1.517,1.44h1.472l0.981,1.486l0.981-1.486c0.813,0,1.426-0.632,1.426-1.44V2.926
	c0-0.808-0.613-1.486-1.426-1.486H3.005C2.193,1.44,1.488,2.118,1.488,2.926z M6.907,2.858v2.019c0,0.27-0.22,0.487-0.491,0.487
	H6.112L5.458,6.34L4.804,5.364H3.005c-0.271,0-0.559-0.218-0.559-0.487V2.858c0-0.269,0.288-0.488,0.559-0.488h3.411
	C6.688,2.371,6.907,2.589,6.907,2.858z"/>
</svg>
