<?xml version="1.0" encoding="utf-8"?>
<!-- Generator: Adobe Illustrator 15.0.0, SVG Export Plug-In . SVG Version: 6.00 Build 0)  -->
<!DOCTYPE svg PUBLIC "-//W3C//DTD SVG 1.1//EN" "http://www.w3.org/Graphics/SVG/1.1/DTD/svg11.dtd">
<svg version="1.1" id="图层_1" xmlns="http://www.w3.org/2000/svg" xmlns:xlink="http://www.w3.org/1999/xlink" x="0px" y="0px"
	 width="8px" height="8px" viewBox="0 0 8 8" enable-background="new 0 0 8 8" xml:space="preserve">
<path fill-rule="evenodd" clip-rule="evenodd" fill="#FFFFFF" d="M6.295,5.791C6.266,5.709,6.07,5.148,5.537,5.148H4.415
	l0.111-0.385c0.488-0.123,0.914-0.231,1.226-0.605h1.355c0.373,0,0.488,0.377,0.488,0.377L8,5.791H6.295z M6.09,3.815
	c-0.064,0-0.129-0.004-0.191-0.013c0.254-0.375,0.4-0.828,0.4-1.313c0-1.025-0.494-1.198-0.896-1.619
	c-1.092,0.334,2.193-0.99,2.193,1.44C7.596,3.142,6.922,3.815,6.09,3.815z M5.838,2.614c0,1.042-0.844,1.887-1.887,1.887
	c-1.042,0-1.887-0.845-1.887-1.887s0.845-1.887,1.887-1.887C4.994,0.727,5.838,1.572,5.838,2.614z M3.642,1.24
	c-0.578,0.207,0.13,0.943-1.138,1.374c0,0.8,0.648,1.447,1.447,1.447c0.8,0,1.449-0.647,1.449-1.447
	C4.662,2.006,3.424,2.286,3.642,1.24z M2.57,0.833C2.148,1.258,1.6,1.569,1.6,2.489c0,0.492,0.151,1.113,0.41,1.49
	C2,3.979,1.991,3.98,1.982,3.98c-0.832,0-1.506-0.838-1.506-1.67C0.476,0.014,3.794,1.082,2.57,0.833z M1.046,4.158h1.1
	C2.513,4.597,2.8,4.733,3.394,4.814l0.077,0.334H2.49c-0.533,0-0.712,0.561-0.739,0.643H0.086L0.57,4.535
	C0.57,4.535,0.673,4.158,1.046,4.158z M2.779,5.303h2.449c0.467,0,0.609,0.473,0.609,0.473l0.508,1.496h-4.77l0.606-1.496
	C2.183,5.775,2.313,5.303,2.779,5.303z"/>
</svg>
