<?xml version="1.0" encoding="utf-8"?>
<!-- Generator: Adobe Illustrator 15.0.0, SVG Export Plug-In . SVG Version: 6.00 Build 0)  -->
<!DOCTYPE svg PUBLIC "-//W3C//DTD SVG 1.1//EN" "http://www.w3.org/Graphics/SVG/1.1/DTD/svg11.dtd">
<svg version="1.1" id="图层_1" xmlns="http://www.w3.org/2000/svg" xmlns:xlink="http://www.w3.org/1999/xlink" x="0px" y="0px"
	 width="20px" height="20px" viewBox="0 0 20 20" enable-background="new 0 0 20 20" xml:space="preserve">
<path fill-rule="evenodd" clip-rule="evenodd" fill="#929292" d="M19.559,13.753c0.251-0.251-2.987,3.466-2.987,3.466
	s-5.541,0-6.093,0c-1.456,0-4.185-1.875-7.198,0.41c-0.226-0.251-3.281-3.474-3.281-3.474s5.558-3.406,5.859-3.582
	c2.26-1.105,3.917,0.636,4.52,0.636c0.603,0,4.46,0,4.736,0c0.754,0,1.607,1.49,0,1.992c-0.452,0-3.933,0-3.933,0
	s0.059,0.812,0.836,0.812c0.779,0,3.817,0,3.817,0s1.59-1.59,1.841-1.866c0.628-0.829,1.139-0.067,1.139-0.067
	S20.689,11.971,19.559,13.753z M17.107,3.576h-3.215v3.616H9.474V3.576H6.26v5.773C5.878,9.343,5.477,9.394,5.055,9.528V3.576V3.174
	V2.371h13.257v0.803v0.402v7.246c-0.224,0-0.654,0-1.204,0V3.576z"/>
</svg>
