<?xml version="1.0" encoding="utf-8"?>
<!-- Generator: Adobe Illustrator 15.0.0, SVG Export Plug-In . SVG Version: 6.00 Build 0)  -->
<!DOCTYPE svg PUBLIC "-//W3C//DTD SVG 1.1//EN" "http://www.w3.org/Graphics/SVG/1.1/DTD/svg11.dtd">
<svg version="1.1" id="图层_1" xmlns="http://www.w3.org/2000/svg" xmlns:xlink="http://www.w3.org/1999/xlink" x="0px" y="0px"
	 width="13px" height="13px" viewBox="0 0 8 8" enable-background="new 0 0 8 8" xml:space="preserve">
<path fill="#919191" d="M5.416,0.09H2.585c-0.366,0-0.665,0.299-0.665,0.665V7.4c0,0.365,0.299,0.678,0.665,0.678h2.831
	c0.365,0,0.664-0.313,0.664-0.678V0.754C6.08,0.389,5.781,0.09,5.416,0.09 M3.649,0.608h0.797c0.073,0,0.132,0.06,0.132,0.133
	c0,0.073-0.06,0.133-0.132,0.133H3.649c-0.074,0-0.133-0.06-0.133-0.133C3.516,0.667,3.575,0.608,3.649,0.608 M4.047,7.799
	c-0.22,0-0.398-0.178-0.398-0.398s0.178-0.399,0.398-0.399S4.446,7.18,4.446,7.4S4.267,7.799,4.047,7.799 M5.762,6.643H2.24V1.366
	h3.521V6.643z"/>
</svg>
