<?xml version="1.0" encoding="utf-8"?>
<!-- Generator: Adobe Illustrator 15.0.0, SVG Export Plug-In . SVG Version: 6.00 Build 0)  -->
<!DOCTYPE svg PUBLIC "-//W3C//DTD SVG 1.1//EN" "http://www.w3.org/Graphics/SVG/1.1/DTD/svg11.dtd">
<svg version="1.1" id="图层_1" xmlns="http://www.w3.org/2000/svg" xmlns:xlink="http://www.w3.org/1999/xlink" x="0px" y="0px"
	 width="20px" height="20px" viewBox="0 0 20 20" enable-background="new 0 0 20 20" xml:space="preserve">
<path fill-rule="evenodd" clip-rule="evenodd" fill="#929292" d="M14.299,13.454h3.621l-3.621,3.899V13.454L14.299,13.454z
	 M5.716,12.071c2.182,0,3.951,1.771,3.951,3.952s-1.77,3.951-3.951,3.951c-2.182,0-3.952-1.77-3.952-3.951
	S3.534,12.071,5.716,12.071L5.716,12.071z M4.488,15.021h2.443v-0.504c0-0.076-0.016-0.147-0.044-0.212
	c-0.082-0.188-0.27-0.319-0.487-0.319H5.02c-0.139,0-0.267,0.053-0.362,0.142c-0.104,0.098-0.17,0.236-0.17,0.39V15.021
	L4.488,15.021z M7.485,15.046v-0.694v-0.104c0-0.425-0.348-0.772-0.773-0.772H4.706c-0.364,0-0.672,0.256-0.752,0.597
	c-0.014,0.056-0.02,0.116-0.02,0.176v0.804c-0.167,0.065-0.287,0.229-0.287,0.418v2.654c0,0.247,0.202,0.449,0.448,0.449h3.24
	c0.247,0,0.449-0.202,0.449-0.449v-2.654C7.785,15.274,7.659,15.108,7.485,15.046L7.485,15.046z M5.716,15.635
	c-0.313,0-0.566,0.253-0.566,0.566c0,0.183,0.087,0.347,0.223,0.45v1.027c0,0.153,0.155,0.278,0.344,0.278l0,0
	c0.188,0,0.343-0.125,0.343-0.278v-1.027c0.135-0.104,0.223-0.268,0.223-0.45C6.282,15.888,6.028,15.635,5.716,15.635L5.716,15.635z
	 M4.911,0.026v11.32c0.261-0.044,0.53-0.067,0.805-0.067c2.62,0,4.745,2.124,4.745,4.745c0,0.64-0.127,1.25-0.357,1.808h3.317
	v-5.226h4.815V0.026H4.911L4.911,0.026z M5.358,2.302h7.279v0.187H5.358V2.302L5.358,2.302z M5.358,1.901h7.913v0.187H5.358V1.901
	L5.358,1.901z M5.358,1.5h9.257v0.187H5.358V1.5L5.358,1.5z M5.358,1.099H15.81v0.187H5.358V1.099L5.358,1.099z M5.358,0.698h11.907
	v0.187H5.358V0.698z"/>
</svg>
