<?xml version="1.0" encoding="utf-8"?>
<!-- Generator: Adobe Illustrator 15.0.0, SVG Export Plug-In . SVG Version: 6.00 Build 0)  -->
<!DOCTYPE svg PUBLIC "-//W3C//DTD SVG 1.1//EN" "http://www.w3.org/Graphics/SVG/1.1/DTD/svg11.dtd">
<svg version="1.1" id="图层_1" xmlns="http://www.w3.org/2000/svg" xmlns:xlink="http://www.w3.org/1999/xlink" x="0px" y="0px"
	 width="20px" height="20px" viewBox="0 0 20 20" enable-background="new 0 0 20 20" xml:space="preserve">
<path fill-rule="evenodd" clip-rule="evenodd" fill="#929292" d="M19.019,11.142c-0.021,0.182-0.056,0.366-0.107,0.552l-1.219,4.395
	c-0.35,1.257-1.677,2.027-2.968,2.027H5.657c-1.291,0-2.607-0.77-2.94-2.027l-1.163-4.395c-0.043-0.159-0.073-0.318-0.092-0.475
	C0.696,11.077,0.113,10.361,0.113,9.5c0-0.963,0.728-1.554,1.626-1.554h2.199C3.947,7.93,3.956,7.914,3.965,7.898l3.053-5.479
	c0.301-0.521,0.968-0.7,1.489-0.399c0.521,0.301,0.7,0.967,0.399,1.489L6.455,7.946h7.037l-2.45-4.435
	c-0.301-0.521-0.123-1.188,0.398-1.49c0.522-0.301,1.188-0.122,1.489,0.399l3.054,5.479c0.009,0.015,0.018,0.031,0.025,0.047h2.461
	c0.898,0,1.627,0.59,1.627,1.554C20.097,10.257,19.646,10.9,19.019,11.142z M7.146,15.252L6.13,11.708
	c-0.124-0.436-0.603-0.693-1.068-0.577s-0.741,0.563-0.617,0.999l1.016,3.545c0.125,0.435,0.603,0.692,1.068,0.576
	C6.995,16.134,7.271,15.688,7.146,15.252z M10.976,11.856c0-0.451-0.39-0.816-0.873-0.816c-0.481,0-0.872,0.365-0.872,0.816v3.669
	c0,0.45,0.391,0.815,0.872,0.815c0.483,0,0.873-0.365,0.873-0.815V11.856z M13.77,16.251c0.466,0.116,0.944-0.142,1.068-0.576
	l1.016-3.545c0.125-0.436-0.15-0.883-0.616-0.999s-0.944,0.142-1.068,0.577l-1.016,3.544C13.028,15.688,13.305,16.134,13.77,16.251z
	"/>
</svg>
