<?xml version="1.0" encoding="utf-8"?>
<!-- Generator: Adobe Illustrator 15.0.0, SVG Export Plug-In . SVG Version: 6.00 Build 0)  -->
<!DOCTYPE svg PUBLIC "-//W3C//DTD SVG 1.1//EN" "http://www.w3.org/Graphics/SVG/1.1/DTD/svg11.dtd">
<svg version="1.1" id="图层_1" xmlns="http://www.w3.org/2000/svg" xmlns:xlink="http://www.w3.org/1999/xlink" x="0px" y="0px"
	 width="20px" height="20px" viewBox="0 0 20 20" enable-background="new 0 0 20 20" xml:space="preserve">
<g>
	<rect x="19.927" y="8.667" fill="#FFFFFF" width="0" height="0.01"/>
	<polygon fill="#FFFFFF" points="12.346,14.936 7.591,14.936 7.116,15.287 0.799,19.939 19.137,19.939 12.82,15.287 	"/>
	<polygon fill="#FFFFFF" points="13.757,14.604 13.756,14.604 19.932,19.152 19.932,10.052 17.311,11.982 	"/>
	<polygon fill="#FFFFFF" points="19.932,8.672 19.922,8.672 19.922,8.672 17.311,6.748 17.311,10.611 19.932,8.681 19.932,8.68 
		19.932,8.68 19.932,8.679 	"/>
	<polygon fill="#FFFFFF" points="6.184,14.6 2.642,11.991 0,10.045 0,10.046 0,19.154 6.183,14.6 	"/>
	<polygon fill="#FFFFFF" points="2.629,6.744 0.028,8.661 2.629,10.588 	"/>
	<polygon fill="#FFFFFF" points="7.337,2.498 7.337,3.604 6.23,3.604 3.736,3.604 3.736,11.407 7.12,13.915 12.824,13.913 
		16.203,11.426 16.203,0 7.337,0 7.337,0.011 	"/>
	<polygon fill="#FFFFFF" points="3.734,2.498 6.23,2.498 6.23,0.011 	"/>
</g>
</svg>
