<?xml version="1.0" encoding="utf-8"?>
<!-- Generator: Adobe Illustrator 15.0.0, SVG Export Plug-In . SVG Version: 6.00 Build 0)  -->
<!DOCTYPE svg PUBLIC "-//W3C//DTD SVG 1.1//EN" "http://www.w3.org/Graphics/SVG/1.1/DTD/svg11.dtd">
<svg version="1.1" id="图层_1" xmlns="http://www.w3.org/2000/svg" xmlns:xlink="http://www.w3.org/1999/xlink" x="0px" y="0px"
	 width="20px" height="20px" viewBox="0 0 20 20" enable-background="new 0 0 20 20" xml:space="preserve">
<path fill-rule="evenodd" clip-rule="evenodd" fill="#929292" d="M19.881,15.09c0,2.67-2.325,4.835-5.192,4.835
	S9.497,17.76,9.497,15.09c0-2.522,1.968-4.591,4.612-4.813V9.174h-0.797v-0.83h2.501v0.83h-0.761v1.103
	c0.995,0.083,2.015,0.431,2.77,0.963l1.033-0.964l1.001,0.932l-1.033,0.965C19.483,12.983,19.881,13.993,19.881,15.09z
	 M14.688,11.134c-2.342,0-4.248,1.774-4.248,3.956s1.906,3.955,4.248,3.955c2.343,0,4.248-1.773,4.248-3.955
	S17.031,11.134,14.688,11.134z M15.053,15.847v0.528h-0.836v-0.528c-0.281-0.152-0.473-0.433-0.473-0.757s0.228-0.605,0.509-0.757
	v-1.948h0.8v1.948c0.281,0.151,0.58,0.433,0.58,0.757S15.334,15.694,15.053,15.847z M3.209,12.352h5.424
	c-0.197,0.378-0.352,0.777-0.461,1.195H3.209c-0.354,0-0.642-0.268-0.642-0.598S2.854,12.352,3.209,12.352z M9.137,11.555H3.209
	c-0.354,0-0.642-0.268-0.642-0.598s0.288-0.598,0.642-0.598h7.104C9.866,10.706,9.469,11.107,9.137,11.555z M3.209,7.57
	c-0.354,0-0.642-0.268-0.642-0.598c0-0.331,0.288-0.597,0.642-0.597h8.558c0.354,0,0.642,0.267,0.642,0.597
	c0,0.33-0.288,0.598-0.642,0.598H3.209z M3.209,9.562c-0.354,0-0.642-0.268-0.642-0.598s0.288-0.597,0.642-0.597h8.558
	c0.075,0,0.146,0.018,0.214,0.04v1.012c-0.115,0.044-0.226,0.094-0.337,0.143H3.209z M13.692,5.179c0-1.1-0.958-1.992-2.14-1.992
	H11.53c0.011,0.065,0.022,0.131,0.022,0.199c0,0.771-0.671,1.395-1.498,1.395H4.92c-0.827,0-1.498-0.624-1.498-1.395
	c0-0.068,0.011-0.133,0.021-0.199H3.423c-1.182,0-2.139,0.892-2.139,1.992v11.555c0,1.1,0.958,1.992,2.139,1.992h5.981
	c0.394,0.458,0.857,0.861,1.376,1.195H2.567C1.386,19.922,0,19.029,0,17.93V4.382c0-1.1,1.386-1.992,2.567-1.992h1.308
	c0.27-0.246,0.639-0.398,1.046-0.398h0.185C5.227,0.875,6.229,0,7.461,0c1.231,0,2.233,0.875,2.356,1.992h0.238
	c0.408,0,0.776,0.153,1.046,0.398h1.308c1.182,0,2.567,0.892,2.567,1.992v3.586h-1.283V5.179z M7.461,1.086
	c-0.67,0-1.214,0.506-1.214,1.13s0.544,1.13,1.214,1.13c0.67,0,1.213-0.506,1.213-1.13S8.131,1.086,7.461,1.086z"/>
</svg>
