<?xml version="1.0" encoding="utf-8"?>
<!-- Generator: Adobe Illustrator 15.0.0, SVG Export Plug-In . SVG Version: 6.00 Build 0)  -->
<!DOCTYPE svg PUBLIC "-//W3C//DTD SVG 1.1//EN" "http://www.w3.org/Graphics/SVG/1.1/DTD/svg11.dtd">
<svg version="1.1" id="图层_1" xmlns="http://www.w3.org/2000/svg" xmlns:xlink="http://www.w3.org/1999/xlink" x="0px" y="0px"
	 width="20px" height="20px" viewBox="0 0 20 20" enable-background="new 0 0 20 20" xml:space="preserve">
<path fill-rule="evenodd" clip-rule="evenodd" fill="#929292" d="M15.893,19.907H4.061c-1.96,0-3.549-1.709-3.549-3.756V0.092
	h14.056v1.186h2.65l0,0v1.186h1.041h1.23v13.688C19.489,18.198,17.853,19.907,15.893,19.907z M13.055,1.67H2.023v14.877
	c0,0.683,0.625,1.384,1.278,1.384h9.753V1.67z M18.306,3.642h-1.088v11.892c0,0.341-0.407,0.617-0.733,0.617
	s-0.782-0.276-0.782-0.617V2.463h-1.135v13.665c0,1.024,0.937,1.854,1.917,1.854c0.979,0,1.821-0.829,1.821-1.854V3.642z
	 M3.918,14.768h3.834v1.186H3.918V14.768z M3.918,12.347h4.923v1.234H3.918V12.347z M11.16,13.581H9.977v-1.234h1.184V13.581z
	 M8.841,9.975h2.319v1.235H8.841V9.975z M3.918,3.699h7.242v5.09H3.918V3.699z M7.705,11.21H3.918V9.975h3.787V11.21z"/>
</svg>
