<?xml version="1.0" encoding="utf-8"?>
<!-- Generator: Adobe Illustrator 15.0.0, SVG Export Plug-In . SVG Version: 6.00 Build 0)  -->
<!DOCTYPE svg PUBLIC "-//W3C//DTD SVG 1.1//EN" "http://www.w3.org/Graphics/SVG/1.1/DTD/svg11.dtd">
<svg version="1.1" id="图层_1" xmlns="http://www.w3.org/2000/svg" xmlns:xlink="http://www.w3.org/1999/xlink" x="0px" y="0px"
	 width="8px" height="8px" viewBox="0 0 8 8" enable-background="new 0 0 8 8" xml:space="preserve">
<path fill-rule="evenodd" clip-rule="evenodd" fill="#FFFFFF" d="M6.717,2.118L5.461,0.842l0.628-0.638
	c0.208-0.211,0.545-0.211,0.754,0l0.501,0.511c0.21,0.211,0.21,0.554,0,0.765L6.717,2.118z M3.068,5.826L1.812,4.55l3.415-3.442
	l1.256,1.275L3.068,5.826z M0.803,6.871l0.765-2.074l1.245,1.267L0.803,6.871z M6.444,7.307c0.176,0,0.317,0.146,0.317,0.324
	c0,0.18-0.142,0.322-0.317,0.322H0.817C0.642,7.953,0.5,7.811,0.5,7.631c0-0.178,0.142-0.324,0.318-0.324H6.444z"/>
</svg>
