<?xml version="1.0" encoding="utf-8"?>
<!-- Generator: Adobe Illustrator 15.0.0, SVG Export Plug-In . SVG Version: 6.00 Build 0)  -->
<!DOCTYPE svg PUBLIC "-//W3C//DTD SVG 1.1//EN" "http://www.w3.org/Graphics/SVG/1.1/DTD/svg11.dtd">
<svg version="1.1" id="图层_1" xmlns="http://www.w3.org/2000/svg" xmlns:xlink="http://www.w3.org/1999/xlink" x="0px" y="0px"
	 width="20px" height="20px" viewBox="0 0 20 20" enable-background="new 0 0 20 20" xml:space="preserve">
<g>
	<path fill="#919191" d="M15.811,1.328h-0.902V0.744c0-0.429-0.349-0.777-0.777-0.777c-0.43,0-0.777,0.348-0.777,0.777v0.583h-2.592
		V0.744c0-0.429-0.348-0.777-0.778-0.777c-0.429,0-0.777,0.348-0.777,0.777v0.583H6.631V0.744c0-0.429-0.349-0.777-0.778-0.777
		c-0.43,0-0.778,0.348-0.778,0.777v0.583H4.19c-0.891,0-1.612,0.722-1.612,1.612v15.482c0,0.891,0.722,1.612,1.612,1.612h11.62
		c0.89,0,1.611-0.722,1.611-1.612V2.94C17.422,2.049,16.7,1.328,15.811,1.328z M15.831,18.286H4.169V3.061h0.906v0.535
		c0,0.429,0.348,0.777,0.778,0.777c0.429,0,0.778-0.349,0.778-0.777V3.061h2.575v0.535c0,0.429,0.348,0.777,0.777,0.777
		c0.43,0,0.778-0.349,0.778-0.777V3.061h2.592v0.535c0,0.429,0.348,0.777,0.777,0.777c0.429,0,0.777-0.349,0.777-0.777V3.061h0.923
		V18.286z"/>
	<rect x="5.838" y="6.378" fill="#919191" width="8.313" height="1.09"/>
	<rect x="5.838" y="9.229" fill="#919191" width="8.313" height="1.09"/>
	<rect x="5.838" y="12.08" fill="#919191" width="8.313" height="1.091"/>
	<rect x="5.838" y="14.931" fill="#919191" width="8.313" height="1.091"/>
</g>
</svg>
