<?xml version="1.0" encoding="utf-8"?>
<!-- Generator: Adobe Illustrator 15.0.0, SVG Export Plug-In . SVG Version: 6.00 Build 0)  -->
<!DOCTYPE svg PUBLIC "-//W3C//DTD SVG 1.1//EN" "http://www.w3.org/Graphics/SVG/1.1/DTD/svg11.dtd">
<svg version="1.1" id="图层_1" xmlns="http://www.w3.org/2000/svg" xmlns:xlink="http://www.w3.org/1999/xlink" x="0px" y="0px"
	 width="20px" height="20px" viewBox="0 0 20 20" enable-background="new 0 0 20 20" xml:space="preserve">
<g>
	<g>
		<path fill="#929292" d="M1.123,6.755H-0.05v2.431h1.173V6.755z M1.123,16.438H-0.05c0,1.671,1.337,3.022,2.986,3.024v-1.188
			C1.936,18.271,1.125,17.452,1.123,16.438z M2.937,4.007V2.82c-1.65,0-2.986,1.354-2.987,3.024h1.173
			C1.125,4.83,1.936,4.009,2.937,4.007z M1.123,9.927H-0.05v2.431h1.173V9.927z M6.204,2.82h-2.4v1.188h2.4V2.82z M12.537,3.834
			V2.82h-2.4v1.188h2.201C12.403,3.95,12.47,3.892,12.537,3.834z M9.404,2.82H7.003v1.188h2.401V2.82z M1.123,15.6v-2.431H-0.05
			V15.6H1.123z M3.804,19.5h2.4v-1.187h-2.4V19.5z M15.284,12.358h1.173V9.927h-1.173V12.358z M15.284,15.6h1.173v-2.431h-1.173
			V15.6z M16.457,9.186V7.828c-0.352,0.446-0.698,0.898-1.04,1.358H16.457z M13.438,18.274v1.188
			c1.65-0.002,2.985-1.354,2.986-3.024h-1.172C15.249,17.452,14.439,18.271,13.438,18.274z M7.003,19.5h2.401v-1.187H7.003V19.5z
			 M10.137,19.5h2.4v-1.187h-2.4V19.5z M19.5,0.572C14,3.987,10.008,8.295,8.215,10.458L3.823,6.973l-1.94,1.584l7.589,7.814
			c1.306-3.389,5.443-10.008,10.494-14.712L19.5,0.572z"/>
	</g>
</g>
</svg>
