<?xml version="1.0" encoding="utf-8"?>
<!-- Generator: Adobe Illustrator 15.0.0, SVG Export Plug-In . SVG Version: 6.00 Build 0)  -->
<!DOCTYPE svg PUBLIC "-//W3C//DTD SVG 1.1//EN" "http://www.w3.org/Graphics/SVG/1.1/DTD/svg11.dtd">
<svg version="1.1" id="图层_1" xmlns="http://www.w3.org/2000/svg" xmlns:xlink="http://www.w3.org/1999/xlink" x="0px" y="0px"
	 width="20px" height="20px" viewBox="0 0 20 20" enable-background="new 0 0 20 20" xml:space="preserve">
<path fill="#919191" d="M13.306,15.904h-1.512h-1.385v-1.386v-2.285v-0.286c-0.227-0.061-0.46-0.114-0.704-0.158
	c0.564-0.604,0.991-1.548,1.43-2.666c0.255-0.648,0.211-1.201,0.211-1.988c0-0.582,0.11-1.514-0.034-2.027
	c-0.487-1.732-1.716-2.21-3.156-2.21c-1.442,0-2.672,0.48-3.158,2.216C4.854,5.625,4.963,6.555,4.963,7.135
	c0,0.789-0.042,1.342,0.213,1.992c0.442,1.124,0.863,2.067,1.425,2.669c-2.188,0.401-3.666,1.543-4.664,1.988
	c-2.064,0.92-2.074,1.928-2.074,1.928v1.712l13.443-0.002v-0.007V15.904z"/>
<g>
	<path fill="#919191" d="M11.878,13.353c-0.127-0.127-0.127-0.338,0-0.464l0.821-0.822c0.128-0.128,0.336-0.128,0.464,0l1.334,1.33
		c0.129,0.128,0.338,0.128,0.464,0l3.655-3.662c0.128-0.128,0.337-0.13,0.464-0.002l0.816,0.812c0.13,0.128,0.13,0.336,0.003,0.464
		l-4.431,4.442c-0.13,0.128-0.381,0.232-0.562,0.232h-0.382c-0.182,0-0.433-0.104-0.561-0.232L11.878,13.353z"/>
</g>
</svg>
