<?xml version="1.0" encoding="utf-8"?>
<!-- Generator: Adobe Illustrator 15.0.0, SVG Export Plug-In . SVG Version: 6.00 Build 0)  -->
<!DOCTYPE svg PUBLIC "-//W3C//DTD SVG 1.1//EN" "http://www.w3.org/Graphics/SVG/1.1/DTD/svg11.dtd">
<svg version="1.1" id="图层_1" xmlns="http://www.w3.org/2000/svg" xmlns:xlink="http://www.w3.org/1999/xlink" x="0px" y="0px"
	 width="20px" height="20px" viewBox="0 0 20 20" enable-background="new 0 0 20 20" xml:space="preserve">
<g>
	<path fill="#919191" d="M16.572,2.763V1.689C16.572,0.631,15.906,0,14.788,0c-1.117,0-1.783,0.631-1.783,1.689v1.074h-1.211V1.689
		C11.794,0.631,11.128,0,10.01,0C8.893,0,8.226,0.631,8.226,1.689v1.074H7.017V1.689C7.017,0.631,6.35,0,5.233,0
		S3.448,0.631,3.448,1.689v1.074H1.4v17.199h17.2V2.763H16.572z M13.958,1.689c0-0.521,0.24-0.734,0.83-0.734
		c0.589,0,0.829,0.212,0.829,0.734v2.872c0,0.522-0.24,0.733-0.829,0.733c-0.59,0-0.83-0.211-0.83-0.733V1.689z M9.182,1.689
		c0-0.521,0.239-0.734,0.829-0.734c0.59,0,0.829,0.212,0.829,0.734v2.872c0,0.522-0.238,0.733-0.829,0.733
		c-0.59,0-0.829-0.211-0.829-0.733V1.689z M4.404,1.689c0-0.521,0.239-0.734,0.829-0.734s0.829,0.212,0.829,0.734v2.872
		c0,0.522-0.239,0.733-0.829,0.733S4.404,5.083,4.404,4.561V1.689z M17.166,18.529H2.833V6.585h14.333V18.529z"/>
	<path fill="#919191" d="M7.509,16.031c0.166,0.166,0.495,0.303,0.73,0.303h0.499c0.235,0,0.564-0.136,0.73-0.303l5.774-5.788
		c0.167-0.167,0.165-0.439-0.002-0.605l-1.064-1.057c-0.167-0.167-0.439-0.166-0.606,0.001l-4.761,4.773
		c-0.167,0.166-0.438,0.166-0.605,0l-1.737-1.734C6.3,11.456,6.027,11.456,5.86,11.623l-1.069,1.07
		c-0.167,0.167-0.167,0.438-0.001,0.605L7.509,16.031z"/>
</g>
</svg>
