<?xml version="1.0" encoding="utf-8"?>
<!-- Generator: Adobe Illustrator 15.0.0, SVG Export Plug-In . SVG Version: 6.00 Build 0)  -->
<!DOCTYPE svg PUBLIC "-//W3C//DTD SVG 1.1//EN" "http://www.w3.org/Graphics/SVG/1.1/DTD/svg11.dtd">
<svg version="1.1" id="图层_1" xmlns="http://www.w3.org/2000/svg" xmlns:xlink="http://www.w3.org/1999/xlink" x="0px" y="0px"
	 width="20px" height="20px" viewBox="0 0 20 20" enable-background="new 0 0 20 20" xml:space="preserve">
<g>
	<path fill="#FFFFFF" d="M19.951,13.204V7.547c0-1.529-1.164-2.785-2.653-2.933v5.604c0,2.354-1.915,4.269-4.269,4.269h-6.57
		c-0.449,0.412-0.894,0.746-1.325,1.021c0.504,0.401,1.142,0.644,1.836,0.644h7.104c2.839,2.896,5.861,2.313,5.259,1.859
		c-0.9-0.679-1.368-1.347-1.576-1.96C19.02,15.717,19.951,14.57,19.951,13.204z"/>
	<path fill="#FFFFFF" d="M15.978,10.218V4.562c0-1.627-1.32-2.947-2.948-2.947H2.996c-1.627,0-2.947,1.32-2.947,2.947v5.656
		c0,1.367,0.932,2.514,2.193,2.847c-0.208,0.613-0.676,1.281-1.576,1.96C0.43,15.202,0.752,15.4,1.401,15.4
		c1.006,0,2.799-0.475,4.524-2.234h7.104C14.657,13.166,15.978,11.847,15.978,10.218z"/>
</g>
</svg>
